<svg width="495" height="196" viewBox="0 0 495 196" fill="none" xmlns="http://www.w3.org/2000/svg">
<path d="M56.5207 70.879C59.1388 65.8393 72.8744 53.6168 83.9589 51.2418C88.9279 50.1771 90.7491 52.9241 90.9793 56.9237C113.401 59.5148 134.338 78.3991 139.142 101.31C140.441 107.508 140.436 113.41 139.315 118.776L144.786 118.689C142.166 125.862 133.448 140.869 112.924 145.172C112.143 145.336 111.364 145.466 110.586 145.563C108.628 145.851 106.596 146 104.5 146C80.1933 146 56.2946 125.992 51.1204 101.31C48.6558 89.5538 50.8841 78.8576 56.5207 70.879Z" fill="white"/>
<path d="M112.733 138.552C136.599 138.552 151.791 118.729 146.665 94.2758C141.539 69.823 118.035 50 94.169 50C70.3026 50 55.1107 69.823 60.237 94.2758C65.3633 118.729 88.8665 138.552 112.733 138.552Z" fill="white"/>
<path d="M111.657 126.965C130.401 126.965 142.335 111.403 138.31 92.2068C134.286 73.0102 115.828 57.4482 97.0833 57.4482C78.3386 57.4482 66.4055 73.0102 70.4298 92.2068C74.4542 111.403 92.9121 126.965 111.657 126.965Z" fill="white"/>
<path d="M110.513 116.207C124.387 116.207 133.277 104.963 130.37 91.0922C127.462 77.2217 113.857 65.9775 99.9831 65.9775C86.1089 65.9775 77.2188 77.2217 80.1266 91.0922C83.0344 104.963 96.6389 116.207 110.513 116.207Z" fill="white"/>
<path d="M110.077 105.806C118.967 105.806 124.696 98.7526 122.871 90.0514C121.047 81.3501 112.361 74.2964 103.471 74.2964C94.5806 74.2964 88.8523 81.3501 90.6764 90.0514C92.5005 98.7526 101.186 105.806 110.077 105.806Z" fill="white"/>
<path d="M108.405 97.8273C112.793 97.8273 115.62 94.346 114.72 90.0516C113.82 85.7572 109.533 82.2759 105.145 82.2759C100.757 82.2759 97.93 85.7572 98.8303 90.0516C99.7306 94.346 104.017 97.8273 108.405 97.8273Z" fill="white"/>
<path d="M219.288 120C219.288 120.552 219.736 121 220.288 121H227.89C228.442 121 228.89 120.552 228.89 120V83.4907H220.288C219.736 83.4907 219.288 83.9384 219.288 84.4907V120Z" fill="white"/>
<path d="M219.597 77.5499C220.518 78.517 221.923 79.0005 223.811 79.0005C225.699 79.0005 227.081 78.517 227.955 77.5499C228.83 76.5368 229.268 75.2934 229.268 73.8197C229.268 72.254 228.83 70.9875 227.955 70.0205C227.081 69.0534 225.699 68.5698 223.811 68.5698C221.923 68.5698 220.518 69.0534 219.597 70.0205C218.722 70.9875 218.285 72.254 218.285 73.8197C218.285 75.2934 218.722 76.5368 219.597 77.5499Z" fill="white"/>
<path fill-rule="evenodd" clip-rule="evenodd" d="M204.152 103.454C201.205 104.836 197.613 105.526 193.376 105.526H185.778V120C185.778 120.552 185.33 121 184.778 121H176.969C176.416 121 175.969 120.552 175.969 120V71.2278C175.969 70.6755 176.416 70.2278 176.969 70.2278H184.778C184.886 70.2278 184.99 70.2449 185.087 70.2765C185.184 70.2449 185.288 70.2278 185.396 70.2278H193.376C197.613 70.2278 201.205 70.9186 204.152 72.3001C207.146 73.6817 209.425 75.6619 210.991 78.2408C212.557 80.7736 213.34 83.79 213.34 87.2899V88.3952C213.34 91.8951 212.557 94.9345 210.991 97.5134C209.425 100.046 207.146 102.026 204.152 103.454ZM199.179 79.8986C197.843 79.1158 196.185 78.7243 194.205 78.7243H185.778V97.0299H194.205C196.185 97.0299 197.843 96.6384 199.179 95.8555C200.56 95.0727 201.596 93.9904 202.287 92.6089C203.024 91.2273 203.393 89.6386 203.393 87.8425C203.393 86.0465 203.024 84.4577 202.287 83.0762C201.596 81.6946 200.56 80.6355 199.179 79.8986Z" fill="white"/>
<path d="M237.502 121C236.949 121 236.502 120.552 236.502 120V84.4906C236.502 83.9383 236.949 83.4906 237.502 83.4906H243.1C243.652 83.4906 244.1 83.9383 244.1 84.4906V92.7338C244.323 91.7718 244.599 90.8781 244.929 90.0529C245.942 87.474 247.439 85.5399 249.419 84.2504C251.445 82.961 253.955 82.3162 256.949 82.3162H257.363C261.83 82.3162 265.215 83.7669 267.517 86.6681C269.82 89.5233 270.971 93.8061 270.971 99.5165V120C270.971 120.552 270.524 121 269.971 121H262.37C261.817 121 261.37 120.552 261.37 120V98.6876C261.37 96.385 260.702 94.5199 259.366 93.0923C258.077 91.6647 256.281 90.9509 253.978 90.9509C251.63 90.9509 249.718 91.6878 248.245 93.1614C246.817 94.589 246.103 96.5232 246.103 98.9639V120C246.103 120.552 245.656 121 245.103 121H237.502Z" fill="white"/>
<path fill-rule="evenodd" clip-rule="evenodd" d="M306.784 103.454C303.836 104.836 300.244 105.526 296.008 105.526H288.409V120C288.409 120.552 287.961 121 287.409 121H279.6C279.048 121 278.6 120.552 278.6 120V71.2278C278.6 70.6755 279.048 70.2278 279.6 70.2278H287.409C287.517 70.2278 287.621 70.2449 287.718 70.2765C287.816 70.2449 287.92 70.2278 288.028 70.2278H296.008C300.244 70.2278 303.836 70.9186 306.784 72.3001C309.777 73.6817 312.057 75.6619 313.622 78.2408C315.188 80.7736 315.971 83.79 315.971 87.2899V88.3952C315.971 91.8951 315.188 94.9345 313.622 97.5134C312.057 100.046 309.777 102.026 306.784 103.454ZM301.81 79.8986C300.475 79.1158 298.817 78.7243 296.837 78.7243H288.409V97.0299H296.837C298.817 97.0299 300.475 96.6384 301.81 95.8555C303.192 95.0727 304.228 93.9904 304.919 92.6089C305.655 91.2273 306.024 89.6386 306.024 87.8425C306.024 86.0465 305.655 84.4577 304.919 83.0762C304.228 81.6946 303.192 80.6355 301.81 79.8986Z" fill="white"/>
<path fill-rule="evenodd" clip-rule="evenodd" d="M337.343 122.312C334.027 122.312 331.103 121.783 328.57 120.723C326.037 119.664 323.896 118.237 322.146 116.441C320.396 114.598 319.06 112.526 318.139 110.224C317.264 107.921 316.827 105.526 316.827 103.039V101.589C316.827 99.0101 317.287 96.5693 318.208 94.2667C319.176 91.9181 320.534 89.8458 322.284 88.0498C324.08 86.2077 326.244 84.7801 328.777 83.767C331.31 82.7078 334.165 82.1782 337.343 82.1782C340.52 82.1782 343.376 82.7078 345.909 83.767C348.441 84.7801 350.583 86.2077 352.333 88.0498C354.129 89.8458 355.487 91.9181 356.408 94.2667C357.329 96.5693 357.79 99.0101 357.79 101.589V103.039C357.79 105.526 357.329 107.921 356.408 110.224C355.533 112.526 354.221 114.598 352.471 116.441C350.721 118.237 348.579 119.664 346.047 120.723C343.514 121.783 340.613 122.312 337.343 122.312ZM337.343 114.092C339.692 114.092 341.672 113.585 343.284 112.572C344.895 111.513 346.116 110.108 346.945 108.358C347.774 106.562 348.188 104.536 348.188 102.28C348.188 99.9772 347.751 97.9509 346.876 96.2009C346.047 94.4049 344.803 93.0003 343.145 91.9872C341.534 90.928 339.599 90.3984 337.343 90.3984C335.086 90.3984 333.129 90.928 331.471 91.9872C329.86 93.0003 328.616 94.4049 327.741 96.2009C326.866 97.9509 326.429 99.9772 326.429 102.28C326.429 104.536 326.843 106.562 327.672 108.358C328.547 110.108 329.79 111.513 331.402 112.572C333.014 113.585 334.994 114.092 337.343 114.092Z" fill="white"/>
<path d="M364.539 120C364.539 120.552 364.987 121 365.539 121H373.141C373.694 121 374.141 120.552 374.141 120V83.4907H365.539C364.987 83.4907 364.539 83.9384 364.539 84.4907V120Z" fill="white"/>
<path d="M364.849 77.5499C365.77 78.517 367.174 79.0005 369.062 79.0005C370.951 79.0005 372.332 78.517 373.207 77.5499C374.082 76.5368 374.52 75.2934 374.52 73.8197C374.52 72.254 374.082 70.9875 373.207 70.0205C372.332 69.0534 370.951 68.5698 369.062 68.5698C367.174 68.5698 365.77 69.0534 364.849 70.0205C363.974 70.9875 363.536 72.254 363.536 73.8197C363.536 75.2934 363.974 76.5368 364.849 77.5499Z" fill="white"/>
<path d="M382.753 121C382.201 121 381.753 120.552 381.753 120V84.4906C381.753 83.9383 382.201 83.4906 382.753 83.4906H388.352C388.904 83.4906 389.352 83.9383 389.352 84.4906V92.7338C389.574 91.7717 389.851 90.8781 390.181 90.0529C391.194 87.474 392.691 85.5399 394.671 84.2504C396.697 82.961 399.207 82.3162 402.2 82.3162H402.615C407.082 82.3162 410.466 83.7669 412.769 86.6681C415.072 89.5233 416.223 93.8061 416.223 99.5165V120C416.223 120.552 415.775 121 415.223 121H407.621C407.069 121 406.621 120.552 406.621 120V98.6876C406.621 96.385 405.953 94.5199 404.618 93.0923C403.328 91.6647 401.532 90.9509 399.23 90.9509C396.881 90.9509 394.97 91.6878 393.496 93.1614C392.069 94.589 391.355 96.5232 391.355 98.9639V120C391.355 120.552 390.907 121 390.355 121H382.753Z" fill="white"/>
<path d="M430.828 120.171C433.085 121.046 435.94 121.483 439.394 121.483H443.782C444.334 121.483 444.782 121.035 444.782 120.483V114.263C444.782 113.711 444.334 113.263 443.782 113.263H438.911C437.068 113.263 435.641 112.779 434.628 111.812C433.661 110.799 433.177 109.372 433.177 107.53L433.211 90.5364H443.782C444.334 90.5364 444.782 90.0886 444.782 89.5364V84.4905C444.782 83.9382 444.334 83.4905 443.782 83.4905H433.225L433.244 73.9236C433.245 73.3705 432.797 72.9216 432.244 72.9216H425.264C424.713 72.9216 424.265 73.3681 424.264 73.9196L424.245 83.4905H419.256C418.704 83.4905 418.256 83.9382 418.256 84.4905V89.5364C418.256 90.0886 418.704 90.5364 419.256 90.5364H424.23L424.197 106.908C424.197 110.546 424.75 113.447 425.855 115.612C426.96 117.73 428.618 119.25 430.828 120.171Z" fill="white"/>
</svg>
